<?xml version="1.0" encoding="utf-8"?>
<!-- Generator: Adobe Illustrator 17.1.0, SVG Export Plug-In . SVG Version: 6.00 Build 0)  -->
<!DOCTYPE svg PUBLIC "-//W3C//DTD SVG 1.1//EN" "http://www.w3.org/Graphics/SVG/1.1/DTD/svg11.dtd">
<svg version="1.1" id="Layer_1" xmlns="http://www.w3.org/2000/svg" xmlns:xlink="http://www.w3.org/1999/xlink" x="0px" y="0px"
	 width="189.1px" height="39.7px" viewBox="1 74 189.1 39.7" enable-background="new 1 74 189.1 39.7" xml:space="preserve">
<g>
	<path fill="#1C2C5E" d="M50.7,89.2v5.2h-1V81.2h1v1.5c0.7-0.9,1.9-1.7,3.3-1.7c2.6,0,4.2,1.9,4.2,5s-1.7,5-4.2,5
		C52.7,91,51.5,90.3,50.7,89.2 M57.2,86c0-2.3-1.2-4.1-3.3-4.1c-1.3,0-2.6,0.8-3.1,1.7v4.7c0.6,0.9,1.8,1.7,3.1,1.7
		C56,90.1,57.2,88.3,57.2,86"/>
	<path fill="#1C2C5E" d="M59.9,86c0-2.7,1.7-5,4.6-5c2.8,0,4.6,2.2,4.6,5s-1.7,5-4.6,5C61.7,91,59.9,88.8,59.9,86 M68,86
		c0-2.1-1.2-4.1-3.5-4.1c-2.2,0-3.5,1.9-3.5,4.1c0,2.1,1.2,4.1,3.5,4.1C66.7,90.1,68,88.1,68,86"/>
	<polygon fill="#1C2C5E" points="79.4,90.8 76.8,82.6 74.1,90.8 73.1,90.8 70,81.2 71.1,81.2 73.6,89.4 76.3,81.2 77.2,81.2 
		79.9,89.4 82.4,81.2 83.6,81.2 80.4,90.8 	"/>
	<path fill="#1C2C5E" d="M84.5,86c0-2.7,1.9-5,4.6-5c2.9,0,4.5,2.3,4.5,5.1v0.2h-8c0.1,2.1,1.5,3.8,3.7,3.8c1.2,0,2.3-0.4,3.1-1.3
		l0.6,0.7c-0.9,1-2.1,1.6-3.7,1.6C86.5,91,84.5,88.9,84.5,86 M89.1,81.9c-2.2,0-3.4,2-3.4,3.6h6.9C92.5,83.9,91.5,81.9,89.1,81.9"/>
	<path fill="#1C2C5E" d="M95.8,90.8v-9.5h1v1.6c0.8-1.1,1.9-1.8,3.2-1.8v1.1c-0.2-0.1-0.3-0.1-0.5-0.1c-0.9,0-2.2,0.9-2.7,1.7v6.9
		L95.8,90.8L95.8,90.8z"/>
	<path fill="#1C2C5E" d="M106.6,88.9v-6.7H105v-0.9h1.6v-2.6h1.1v2.6h1.9v0.9h-1.9v6.6c0,0.7,0.3,1.3,1,1.3c0.4,0,0.9-0.2,1.1-0.4
		l0.4,0.8c-0.4,0.4-0.8,0.6-1.6,0.6C107.2,91,106.6,90.2,106.6,88.9"/>
	<path fill="#1C2C5E" d="M110.9,86c0-2.7,1.7-5,4.6-5s4.6,2.2,4.6,5s-1.7,5-4.6,5C112.6,91,110.9,88.8,110.9,86 M118.9,86
		c0-2.1-1.2-4.1-3.5-4.1c-2.2,0-3.5,1.9-3.5,4.1c0,2.1,1.2,4.1,3.5,4.1C117.7,90.1,118.9,88.1,118.9,86"/>
	<path fill="#1C2C5E" d="M48.7,101.7c0-2.9,2.1-5,5.1-5c1.9,0,3.1,0.9,3.7,1.7l-1.6,1.6c-0.4-0.7-1.1-1-2-1c-1.5,0-2.6,1.1-2.6,2.7
		c0,1.7,1.1,2.8,2.6,2.8c0.9,0,1.6-0.4,2-1.1l1.6,1.6c-0.6,0.9-1.8,1.7-3.7,1.7C50.9,106.7,48.7,104.6,48.7,101.7"/>
	<path fill="#1C2C5E" d="M65.2,106.4v-5.8c0-1.3-0.7-1.7-1.7-1.7c-1,0-1.7,0.6-2.2,1.1v6.4h-2.5V93.3h2.5v4.9
		c0.6-0.7,1.7-1.4,3.3-1.4c2.1,0,3.1,1.1,3.1,3v6.7H65.2z"/>
	<path fill="#1C2C5E" d="M76.3,106.4v-1.2c-0.7,0.9-1.7,1.4-2.9,1.4c-2.4,0-4.2-1.8-4.2-5c0-3.1,1.8-5,4.2-5c1.1,0,2.2,0.5,2.9,1.4
		v-1.2h2.5v9.5h-2.5V106.4z M76.3,103.4V100c-0.4-0.6-1.3-1.1-2.1-1.1c-1.4,0-2.4,1.1-2.4,2.7c0,1.7,1,2.8,2.4,2.8
		C75,104.5,75.9,104,76.3,103.4"/>
	<path fill="#1C2C5E" d="M87.4,106.4v-5.7c0-1.3-0.7-1.7-1.7-1.7c-1,0-1.7,0.6-2.2,1.1v6.4h-2.5V97h2.5v1.2c0.6-0.7,1.8-1.4,3.3-1.4
		c2.1,0,3.1,1.2,3.1,3.1v6.7h-2.5V106.4z"/>
	<path fill="#1C2C5E" d="M91.7,108.9l1.1-1.8c0.7,0.8,1.8,1.2,3,1.2c1.2,0,2.6-0.5,2.6-2.4v-0.9c-0.7,0.9-1.7,1.5-2.9,1.5
		c-2.4,0-4.2-1.7-4.2-4.8c0-3.1,1.8-4.9,4.2-4.9c1.1,0,2.2,0.5,2.9,1.4v-1.2h2.5v8.9c0,3.6-2.8,4.5-5.1,4.5
		C94.2,110.3,92.9,109.9,91.7,108.9 M98.5,103.1V100c-0.4-0.6-1.3-1.1-2.1-1.1c-1.4,0-2.4,1-2.4,2.6c0,1.6,1,2.6,2.4,2.6
		C97.2,104.1,98,103.7,98.5,103.1"/>
	<path fill="#1C2C5E" d="M102.5,101.7c0-2.7,2.1-5,4.9-5c2.9,0,4.7,2.1,4.7,5.2v0.6h-7.1c0.2,1.2,1.1,2.1,2.7,2.1
		c0.8,0,1.9-0.3,2.5-0.9l1.1,1.7c-0.9,0.9-2.4,1.3-3.9,1.3C104.6,106.7,102.5,104.8,102.5,101.7 M107.4,98.8c-1.6,0-2.2,1.1-2.3,2.1
		h4.7C109.6,99.9,109,98.8,107.4,98.8"/>
	<rect x="128.2" y="74" fill="#1C2C5E" width="0.7" height="39.7"/>
	<path fill="#1C2C5E" d="M137,86.7v-7.5h0.8v2.9c0.4-0.6,1.1-0.9,1.8-0.9c1.4,0,2.4,1.1,2.4,2.9s-1,2.8-2.4,2.8
		c-0.7,0-1.4-0.4-1.8-0.9v0.8H137z M139.5,86c1.1,0,1.7-0.9,1.7-2.1s-0.6-2.1-1.7-2.1c-0.7,0-1.3,0.4-1.6,0.9v2.4
		C138.2,85.7,138.8,86,139.5,86"/>
	<path fill="#1C2C5E" d="M147.1,86.7v-0.7c-0.4,0.5-1.1,0.9-1.9,0.9c-1.1,0-1.7-0.6-1.7-1.7v-3.8h0.8v3.6c0,0.9,0.5,1.2,1.2,1.2
		c0.6,0,1.2-0.4,1.6-0.8v-4h0.8v5.4C147.9,86.7,147.1,86.7,147.1,86.7z"/>
	<path fill="#1C2C5E" d="M149.2,85.9l0.4-0.6c0.4,0.4,1.1,0.7,1.8,0.7c0.8,0,1.3-0.4,1.3-0.9c0-1.3-3.4-0.5-3.4-2.5
		c0-0.9,0.7-1.6,2-1.6c0.9,0,1.6,0.4,2,0.8l-0.4,0.6c-0.3-0.4-0.9-0.7-1.6-0.7c-0.7,0-1.2,0.4-1.2,0.9c0,1.2,3.4,0.4,3.4,2.5
		c0,0.9-0.7,1.6-2.1,1.6C150.4,86.8,149.7,86.5,149.2,85.9"/>
	<path fill="#1C2C5E" d="M154.7,79.9c0-0.3,0.2-0.6,0.6-0.6c0.3,0,0.6,0.2,0.6,0.6c0,0.3-0.2,0.6-0.6,0.6
		C154.9,80.5,154.7,80.2,154.7,79.9 M154.8,81.2h0.8v5.4h-0.8V81.2z"/>
	<path fill="#1C2C5E" d="M161,86.7v-3.6c0-0.9-0.5-1.2-1.2-1.2c-0.7,0-1.2,0.4-1.6,0.8v3.9h-0.8v-5.4h0.8V82
		c0.4-0.4,1.1-0.9,1.9-0.9c1.1,0,1.7,0.6,1.7,1.7v3.8L161,86.7L161,86.7z"/>
	<path fill="#1C2C5E" d="M163.2,83.9c0-1.6,1.1-2.8,2.7-2.8c1.6,0,2.6,1.2,2.6,2.9v0.2h-4.4c0.1,1,0.7,1.9,1.9,1.9
		c0.6,0,1.2-0.2,1.7-0.7l0.4,0.6c-0.6,0.6-1.2,0.8-2.1,0.8C164.4,86.8,163.2,85.7,163.2,83.9 M165.9,81.8c-1.1,0-1.7,1-1.7,1.8h3.6
		C167.7,82.8,167.1,81.8,165.9,81.8"/>
	<path fill="#1C2C5E" d="M169.3,85.9l0.4-0.6c0.4,0.4,1.1,0.7,1.8,0.7c0.8,0,1.3-0.4,1.3-0.9c0-1.3-3.4-0.5-3.4-2.5
		c0-0.9,0.7-1.6,2-1.6c0.9,0,1.6,0.4,2,0.8l-0.4,0.6c-0.3-0.4-0.9-0.7-1.6-0.7c-0.7,0-1.2,0.4-1.2,0.9c0,1.2,3.4,0.4,3.4,2.5
		c0,0.9-0.7,1.6-2.1,1.6C170.7,86.8,169.9,86.5,169.3,85.9"/>
	<path fill="#1C2C5E" d="M174.6,85.9l0.4-0.6c0.4,0.4,1.1,0.7,1.8,0.7c0.8,0,1.3-0.4,1.3-0.9c0-1.3-3.4-0.5-3.4-2.5
		c0-0.9,0.7-1.6,2-1.6c0.9,0,1.6,0.4,2,0.8l-0.4,0.6c-0.3-0.4-0.9-0.7-1.6-0.7c-0.7,0-1.2,0.4-1.2,0.9c0,1.2,3.4,0.4,3.4,2.5
		c0,0.9-0.7,1.6-2.1,1.6C175.8,86.8,175.2,86.5,174.6,85.9"/>
	<path fill="#1C2C5E" d="M183,79.9c0-0.3,0.2-0.6,0.6-0.6c0.3,0,0.6,0.2,0.6,0.6c0,0.3-0.2,0.6-0.6,0.6S183,80.2,183,79.9
		 M183.1,81.2h0.8v5.4h-0.8V81.2z"/>
	<path fill="#1C2C5E" d="M189.3,86.7v-3.6c0-0.9-0.5-1.2-1.2-1.2c-0.7,0-1.2,0.4-1.6,0.8v3.9h-0.8v-5.4h0.8V82
		c0.4-0.4,1.1-0.9,1.9-0.9c1.1,0,1.7,0.6,1.7,1.7v3.8L189.3,86.7L189.3,86.7z"/>
	<path fill="#1C2C5E" d="M136.7,93.8c0-1.6,1.1-2.8,2.7-2.8c1,0,1.6,0.4,2,0.9l-0.6,0.5c-0.4-0.5-0.8-0.7-1.4-0.7
		c-1.1,0-1.9,0.9-1.9,2.1s0.7,2.1,1.9,2.1c0.6,0,1-0.2,1.4-0.7l0.6,0.5c-0.4,0.6-1,0.9-2,0.9C137.8,96.7,136.7,95.5,136.7,93.8"/>
	<path fill="#1C2C5E" d="M142.3,93.8c0-1.6,1-2.8,2.7-2.8c1.6,0,2.7,1.2,2.7,2.8s-1,2.9-2.7,2.9C143.3,96.7,142.3,95.4,142.3,93.8
		 M146.8,93.8c0-1.1-0.6-2.1-1.8-2.1c-1.1,0-1.8,1-1.8,2.1c0,1.1,0.6,2.1,1.8,2.1C146.1,96,146.8,95,146.8,93.8"/>
	<path fill="#1C2C5E" d="M155.5,96.5v-3.7c0-0.7-0.3-1.1-1-1.1c-0.6,0-1.1,0.4-1.4,0.8v3.9h-0.8v-3.7c0-0.7-0.2-1.1-1-1.1
		c-0.6,0-1.1,0.4-1.4,0.8v3.9H149V91h0.8v0.8c0.2-0.4,0.9-0.9,1.7-0.9c0.8,0,1.3,0.4,1.4,1c0.3-0.5,1-1,1.8-1c1,0,1.5,0.6,1.5,1.6
		v3.9h-0.8V96.5z"/>
	<path fill="#1C2C5E" d="M164.5,96.5v-3.7c0-0.7-0.3-1.1-1-1.1c-0.6,0-1.1,0.4-1.4,0.8v3.9h-0.8v-3.7c0-0.7-0.2-1.1-1-1.1
		c-0.6,0-1.1,0.4-1.4,0.8v3.9h-0.8V91h0.8v0.8c0.2-0.4,0.9-0.9,1.7-0.9s1.3,0.4,1.4,1c0.3-0.5,1-1,1.8-1c1,0,1.5,0.6,1.5,1.6v3.9
		h-0.8V96.5z"/>
	<path fill="#1C2C5E" d="M170.7,96.5v-0.7c-0.4,0.5-1.1,0.9-1.9,0.9c-1.1,0-1.7-0.6-1.7-1.7v-3.8h0.8v3.6c0,0.9,0.5,1.2,1.2,1.2
		c0.6,0,1.2-0.4,1.6-0.8v-4h0.8v5.4L170.7,96.5L170.7,96.5z"/>
	<path fill="#1C2C5E" d="M176.9,96.5V93c0-0.9-0.5-1.2-1.2-1.2c-0.7,0-1.2,0.4-1.6,0.8v3.9h-0.8V91h0.8v0.8c0.4-0.4,1.1-0.9,1.9-0.9
		c1.1,0,1.7,0.6,1.7,1.7v3.8L176.9,96.5L176.9,96.5z"/>
	<path fill="#1C2C5E" d="M179.3,89.8c0-0.3,0.2-0.6,0.6-0.6s0.6,0.2,0.6,0.6c0,0.3-0.2,0.6-0.6,0.6S179.3,90.1,179.3,89.8
		 M179.4,91.2h0.8v5.4h-0.8V91.2z"/>
	<path fill="#1C2C5E" d="M182.3,95.4v-3.6h-0.9v-0.7h0.9v-1.5h0.9v1.5h1.1v0.7h-1.1v3.4c0,0.4,0.2,0.7,0.6,0.7
		c0.2,0,0.4-0.1,0.6-0.2l0.2,0.6c-0.2,0.2-0.5,0.4-1,0.4C182.8,96.7,182.3,96.2,182.3,95.4"/>
	<path fill="#1C2C5E" d="M185.6,97.9l0.4-0.6c0.4,0.5,1,0.7,1.6,0.7c1,0,1.6-0.6,1.6-1.6v-0.8c-0.4,0.5-1.1,0.9-1.9,0.9
		c-1.1,0-1.7-0.6-1.7-1.7v-3.7h0.8v3.4c0,0.9,0.5,1.2,1.2,1.2c0.6,0,1.2-0.4,1.6-0.8v-3.9h0.8v5.4c0,1.6-1.1,2.2-2.5,2.2
		C186.8,98.8,186.1,98.5,185.6,97.9"/>
	<path fill="#1C2C5E" d="M140.7,106.4v-3.6c0-0.9-0.5-1.2-1.2-1.2c-0.6,0-1.2,0.4-1.6,0.8v3.9h-0.8v-7.5h0.8v2.9
		c0.4-0.4,1.1-0.9,1.9-0.9c1.1,0,1.7,0.6,1.7,1.7v3.8L140.7,106.4L140.7,106.4z"/>
	<path fill="#1C2C5E" d="M147.1,106.4v-0.8c-0.4,0.6-1.1,0.9-1.8,0.9c-1.4,0-2.4-1.1-2.4-2.8c0-1.7,1-2.9,2.4-2.9
		c0.7,0,1.4,0.4,1.8,0.9V101h0.8v5.4C147.9,106.4,147.1,106.4,147.1,106.4z M147.1,105v-2.4c-0.3-0.5-0.9-0.9-1.6-0.9
		c-1.1,0-1.7,0.9-1.7,2.1c0,1.2,0.6,2.1,1.7,2.1C146.2,105.8,146.8,105.5,147.1,105"/>
	<path fill="#1C2C5E" d="M153.3,106.4v-3.6c0-0.9-0.5-1.2-1.2-1.2c-0.7,0-1.2,0.4-1.6,0.8v3.9h-0.8V101h0.8v0.8
		c0.4-0.4,1.1-0.9,1.9-0.9c1.1,0,1.7,0.6,1.7,1.7v3.8L153.3,106.4L153.3,106.4z"/>
	<path fill="#1C2C5E" d="M159.7,106.4v-0.8c-0.4,0.6-1.1,0.9-1.8,0.9c-1.4,0-2.4-1.1-2.4-2.8c0-1.7,1-2.9,2.4-2.9
		c0.7,0,1.4,0.4,1.8,0.9V99h0.8v7.5C160.6,106.4,159.7,106.4,159.7,106.4z M159.7,105v-2.4c-0.3-0.5-0.9-0.9-1.6-0.9
		c-1.1,0-1.7,0.9-1.7,2.1c0,1.2,0.6,2.1,1.7,2.1C158.8,105.8,159.4,105.5,159.7,105"/>
	<path fill="#1C2C5E" d="M161.8,105.8l0.4-0.6c0.4,0.4,1.1,0.7,1.8,0.7c0.8,0,1.3-0.4,1.3-0.9c0-1.3-3.4-0.5-3.4-2.5
		c0-0.9,0.7-1.6,2-1.6c0.9,0,1.6,0.4,2,0.8l-0.4,0.6c-0.3-0.4-0.9-0.7-1.6-0.7c-0.7,0-1.2,0.4-1.2,0.9c0,1.2,3.4,0.4,3.4,2.5
		c0,0.9-0.7,1.6-2.1,1.6C163.1,106.6,162.4,106.3,161.8,105.8"/>
	<path fill="#1C2C5E" d="M20.8,74C9.9,74,1,82.9,1,93.8s8.9,19.8,19.8,19.8s19.8-8.9,19.8-19.8C40.7,82.9,31.8,74,20.8,74
		 M34.1,101.1c0,0-2.5,3.3-5.7,5.8c-4.3,3.6-10.5,3.6-14.9,0.1c0,0-3.3-2.5-5.7-5.7c-3.5-4.3-3.5-10.5,0-14.8c0,0,2.5-3.3,5.7-5.7
		c4.3-3.5,10.5-3.5,14.8,0c0,0,3.3,2.5,5.7,5.7C37.5,90.7,37.5,96.9,34.1,101.1"/>
	<path fill="#0082BA" d="M34,86.5c-2.5-3.2-5.7-5.7-5.7-5.7c-4.3-3.5-10.5-3.5-14.8,0c-3.2,2.5-5.7,5.7-5.7,5.7
		c-3.5,4.3-3.5,10.5,0,14.8c2.5,3.2,5.7,5.7,5.7,5.7c4.3,3.5,10.6,3.5,14.9-0.1c3.2-2.5,5.7-5.8,5.7-5.8
		C37.5,96.9,37.5,90.7,34,86.5 M30.3,98.3l-5.1,5.1c-2.4,2.4-6.4,2.4-8.8,0l-5.1-5.1c-2.4-2.4-2.4-6.4,0-8.8l5.1-5.1
		c2.4-2.4,6.4-2.4,8.8,0l5.1,5.1C32.7,91.8,32.7,95.8,30.3,98.3"/>
	<path fill="#00BACD" d="M25.3,84.4c-2.4-2.4-6.4-2.4-8.8,0l-5.1,5.1c-2.4,2.4-2.4,6.4,0,8.8l5.1,5.1c2.4,2.4,6.4,2.4,8.8,0l5.1-5.1
		c2.4-2.4,2.4-6.4,0-8.8L25.3,84.4z M20.8,101.2l-7.3-7.4l7.4-7.4l7.4,7.4L20.8,101.2z"/>
	
		<rect x="15.7" y="88.7" transform="matrix(0.7071 0.7071 -0.7071 0.7071 72.4891 12.7366)" fill="#E1E319" width="10.4" height="10.4"/>
</g>
</svg>
