<?xml version="1.0" encoding="utf-8"?>
<!-- Generator: Adobe Illustrator 20.0.0, SVG Export Plug-In . SVG Version: 6.00 Build 0)  -->
<svg version="1.1" id="Layer_1" xmlns="http://www.w3.org/2000/svg" xmlns:xlink="http://www.w3.org/1999/xlink" x="0px" y="0px"
	 viewBox="0 0 85 84.9" style="enable-background:new 0 0 85 84.9;" xml:space="preserve">
<style type="text/css">
	.st0{fill:none;stroke:#FFBE00;stroke-width:2;stroke-linecap:round;stroke-linejoin:round;stroke-miterlimit:10;}
	.st1{fill:none;stroke:#8000FF;stroke-width:2;stroke-linecap:round;stroke-linejoin:round;stroke-miterlimit:10;}
	.st2{fill:#706F6F;}
</style>
<line class="st0" x1="29.6" y1="55.3" x2="55.3" y2="81"/>
<line class="st0" x1="55.3" y1="3.9" x2="81" y2="29.6"/>
<line class="st0" x1="29.6" y1="3.9" x2="55.5" y2="29.7"/>
<line class="st0" x1="3.9" y1="3.9" x2="55.3" y2="55.3"/>
<path class="st1" d="M3.9,3.9v25.7l25.7,0V81h25.7V29.6H81l0-25.7C81.1,3.9,7.3,3.9,3.9,3.9z"/>
<circle class="st2" cx="29.6" cy="3.9" r="3.9"/>
<circle class="st2" cx="29.6" cy="29.6" r="3.9"/>
<circle class="st2" cx="29.6" cy="55.3" r="3.9"/>
<circle class="st2" cx="55.3" cy="3.9" r="3.9"/>
<circle class="st2" cx="55.3" cy="29.6" r="3.9"/>
<circle class="st2" cx="55.3" cy="55.3" r="3.9"/>
<circle class="st2" cx="81.1" cy="3.9" r="3.9"/>
<circle class="st2" cx="81.1" cy="29.6" r="3.9"/>
<circle class="st2" cx="3.9" cy="29.6" r="3.9"/>
<circle class="st2" cx="3.9" cy="3.9" r="3.9"/>
<circle class="st2" cx="29.6" cy="81" r="3.9"/>
<circle class="st2" cx="55.3" cy="81" r="3.9"/>
</svg>
