<svg xmlns="http://www.w3.org/2000/svg" width="84.956" height="84.868" viewBox="0 0 84.956 84.868">
  <g id="Group_2" data-name="Group 2" transform="translate(-663.251 -869)">
    <line id="Line_129" data-name="Line 129" x1="25.901" transform="translate(692.91 898.585)" fill="none" stroke="#ffbe00" stroke-linecap="round" stroke-linejoin="round" stroke-width="2"/>
    <line id="Line_130" data-name="Line 130" x1="25.901" transform="translate(692.91 924.334)" fill="none" stroke="#ffbe00" stroke-linecap="round" stroke-linejoin="round" stroke-width="2"/>
    <line id="Line_131" data-name="Line 131" y2="25.901" transform="translate(692.848 872.871)" fill="none" stroke="#ffbe00" stroke-linecap="round" stroke-linejoin="round" stroke-width="2"/>
    <line id="Line_132" data-name="Line 132" y2="25.901" transform="translate(718.601 872.871)" fill="none" stroke="#ffbe00" stroke-linecap="round" stroke-linejoin="round" stroke-width="2"/>
    <path id="Path_927" data-name="Path 927" d="M62.68,22.6l.042,25.667H88.367V99.642l25.75.041.021-51.4h25.75V22.6Z" transform="translate(604.461 850.319)" fill="none" stroke="#8000ff" stroke-linecap="round" stroke-linejoin="round" stroke-width="2"/>
    <circle id="Ellipse_6" data-name="Ellipse 6" cx="3.871" cy="3.871" r="3.871" transform="translate(688.989 869)" fill="#706f6f"/>
    <circle id="Ellipse_7" data-name="Ellipse 7" cx="3.871" cy="3.871" r="3.871" transform="translate(688.989 894.728)" fill="#706f6f"/>
    <circle id="Ellipse_8" data-name="Ellipse 8" cx="3.871" cy="3.871" r="3.871" transform="translate(688.989 920.467)" fill="#706f6f"/>
    <circle id="Ellipse_9" data-name="Ellipse 9" cx="3.871" cy="3.871" r="3.871" transform="translate(714.728 869)" fill="#706f6f"/>
    <circle id="Ellipse_10" data-name="Ellipse 10" cx="3.871" cy="3.871" r="3.871" transform="translate(714.728 894.728)" fill="#706f6f"/>
    <circle id="Ellipse_11" data-name="Ellipse 11" cx="3.871" cy="3.871" r="3.871" transform="translate(714.728 920.467)" fill="#706f6f"/>
    <circle id="Ellipse_12" data-name="Ellipse 12" cx="3.871" cy="3.871" r="3.871" transform="translate(740.464 869)" fill="#706f6f"/>
    <circle id="Ellipse_13" data-name="Ellipse 13" cx="3.871" cy="3.871" r="3.871" transform="translate(740.464 894.728)" fill="#706f6f"/>
    <circle id="Ellipse_14" data-name="Ellipse 14" cx="3.871" cy="3.871" r="3.871" transform="translate(663.251 894.728)" fill="#706f6f"/>
    <circle id="Ellipse_15" data-name="Ellipse 15" cx="3.871" cy="3.871" r="3.871" transform="translate(663.251 869)" fill="#706f6f"/>
    <circle id="Ellipse_16" data-name="Ellipse 16" cx="3.871" cy="3.871" r="3.871" transform="translate(688.989 946.125)" fill="#706f6f"/>
    <circle id="Ellipse_17" data-name="Ellipse 17" cx="3.871" cy="3.871" r="3.871" transform="translate(714.728 946.125)" fill="#706f6f"/>
  </g>
</svg>
