<svg xmlns="http://www.w3.org/2000/svg" width="125.541" height="28.996" viewBox="0 0 125.541 28.996">
  <g id="TWINE_logo" data-name="TWINE logo" transform="translate(-25.539 -129.273)">
    <path id="Path_928" data-name="Path 928" d="M37.707,156.81a1.427,1.427,0,1,1-2.85,0V132.165H26.886a1.31,1.31,0,1,1,0-2.618H45.639a1.31,1.31,0,1,1,0,2.618H37.707Z" transform="translate(0 -0.043)" fill="#fff"/>
    <path id="Path_929" data-name="Path 929" d="M90.42,130.389a1.263,1.263,0,0,1,1.309-1.116,1.506,1.506,0,0,1,1.618,1.347,10.712,10.712,0,0,1-.463,1.656l-7.739,24.76a1.686,1.686,0,0,1-1.695,1.193,1.748,1.748,0,0,1-1.694-1.193l-7.085-22.951-7.2,22.951a1.613,1.613,0,0,1-1.656,1.193,1.762,1.762,0,0,1-1.733-1.193l-7.548-24.3a10.356,10.356,0,0,1-.578-2.118,1.506,1.506,0,0,1,1.617-1.347,1.4,1.4,0,0,1,1.386,1.116l6.893,24.066L72.938,130.5a1.8,1.8,0,0,1,1.734-1.232,1.752,1.752,0,0,1,1.694,1.232l7.008,23.951Z" transform="translate(-4.771)" fill="#fff"/>
    <path id="Path_930" data-name="Path 930" d="M110.1,156.767a1.321,1.321,0,0,1-1.425,1.5,1.338,1.338,0,0,1-1.425-1.5V130.736a1.309,1.309,0,0,1,1.425-1.463,1.292,1.292,0,0,1,1.425,1.463Z" transform="translate(-12.815)" fill="#fff"/>
    <path id="Path_931" data-name="Path 931" d="M143.3,156.5a1.8,1.8,0,0,1-1.848,1.733,1.637,1.637,0,0,1-1.347-.654L121.7,132.969v23.8a1.321,1.321,0,0,1-1.425,1.5,1.338,1.338,0,0,1-1.425-1.5V131.621a2.475,2.475,0,0,1,2.541-2.348,2.353,2.353,0,0,1,1.849.923l17.212,22.873V130.736a1.425,1.425,0,1,1,2.849,0Z" transform="translate(-14.635)" fill="#fff"/>
    <path id="Path_932" data-name="Path 932" d="M170.236,155.462a1.29,1.29,0,1,1,0,2.58h-12.63a1.376,1.376,0,0,1-1.579-1.578V131.125a1.376,1.376,0,0,1,1.579-1.578h12.63a1.309,1.309,0,1,1,0,2.618H158.877v9.7h9.781a1.29,1.29,0,1,1,0,2.58h-9.781v11.013Z" transform="translate(-20.466 -0.043)" fill="#fff"/>
  </g>
</svg>
