<svg width = "22px" height = "22px" xmlns="http://www.w3.org/2000/svg" viewBox="0 0 512 512">
<path d="M 465.4 48.2 h -137.6 V 24 C 327.8 10.7 317.1 0 303.9 0 h -95.8 c -13.2 0 -23.9 10.7 -23.9 24 V 48.2 H 46.6 c -6.7 0 -12 5.4 -12 12 c 0 6.7 5.4 12 12 12 h 22.3 l 15.2 396.4 C 85.1 493 104.8 512 129.1 512 h 253.8 c 24.3 0 44 -19 45 -43.3 l 15.2 -396.4 h 22.3 c 6.7 0 12 -5.4 12 -12 C 477.5 53.6 472.1 48.2 465.4 48.2 z M 208.3 24.1 h 95.4 v 24.1 h -95.4 V 24.1 z M 403.8 467.8 c -0.4 11.3 -9.6 20.1 -20.9 20.1 H 129.1 c -11.3 0 -20.4 -8.8 -20.9 -20.1 L 93 72.3 h 326 L 403.8 467.8 z"/>
<path d="M 182.6 181.6 c -0.1 -6.6 -5.5 -11.8 -12 -11.8 c -0.1 0 -0.2 0 -0.2 0 c -6.7 0.1 -11.9 5.6 -11.8 12.3 l 3.8 196.6 c 0.1 6.6 5.5 11.8 12 11.8 c 0.1 0 0.2 0 0.2 0 c 6.7 -0.1 11.9 -5.6 11.8 -12.3 L 182.6 181.6 z"/>
<path d="M 256 169.8 c -6.7 0 -12 5.4 -12 12 v 196.6 c 0 6.7 5.4 12 12 12 c 6.7 0 12 -5.4 12 -12 V 181.8 C 268 175.1 262.7 169.8 256 169.8 z"/>
<path d="M 341.6 169.8 c -6.6 -0.1 -12.2 5.2 -12.3 11.8 l -3.8 196.6 c -0.1 6.7 5.2 12.2 11.8 12.3 c 0.1 0 0.2 0 0.2 0 c 6.5 0 11.9 -5.2 12 -11.8 l 3.8 -196.6 C 353.6 175.4 348.3 169.9 341.6 169.8 z"/></svg>