<?xml version="1.0" encoding="UTF-8" standalone="no"?>
<svg
   xmlns:dc="http://purl.org/dc/elements/1.1/"
   xmlns:cc="http://creativecommons.org/ns#"
   xmlns:rdf="http://www.w3.org/1999/02/22-rdf-syntax-ns#"
   xmlns:svg="http://www.w3.org/2000/svg"
   xmlns="http://www.w3.org/2000/svg"
   xmlns:sodipodi="http://sodipodi.sourceforge.net/DTD/sodipodi-0.dtd"
   xmlns:inkscape="http://www.inkscape.org/namespaces/inkscape"
   width="22px"
   height="22px"
   viewBox="0 0 512 512"
   version="1.1"
   id="svg10"
   sodipodi:docname="trash.svg"
   inkscape:version="0.92.5 (2060ec1f9f, 2020-04-08)">
  <metadata
     id="metadata16">
    <rdf:RDF>
      <cc:Work
         rdf:about="">
        <dc:format>image/svg+xml</dc:format>
        <dc:type
           rdf:resource="http://purl.org/dc/dcmitype/StillImage" />
      </cc:Work>
    </rdf:RDF>
  </metadata>
  <defs
     id="defs14" />
  <sodipodi:namedview
     pagecolor="#ffffff"
     bordercolor="#666666"
     borderopacity="1"
     objecttolerance="10"
     gridtolerance="10"
     guidetolerance="10"
     inkscape:pageopacity="0"
     inkscape:pageshadow="2"
     inkscape:window-width="1366"
     inkscape:window-height="705"
     id="namedview12"
     showgrid="false"
     inkscape:zoom="10.727273"
     inkscape:cx="-19.29661"
     inkscape:cy="11"
     inkscape:window-x="-8"
     inkscape:window-y="-8"
     inkscape:window-maximized="1"
     inkscape:current-layer="svg10" />
  <path
     d="M 465.4 48.2 h -137.6 V 24 C 327.8 10.7 317.1 0 303.9 0 h -95.8 c -13.2 0 -23.9 10.7 -23.9 24 V 48.2 H 46.6 c -6.7 0 -12 5.4 -12 12 c 0 6.7 5.4 12 12 12 h 22.3 l 15.2 396.4 C 85.1 493 104.8 512 129.1 512 h 253.8 c 24.3 0 44 -19 45 -43.3 l 15.2 -396.4 h 22.3 c 6.7 0 12 -5.4 12 -12 C 477.5 53.6 472.1 48.2 465.4 48.2 z M 208.3 24.1 h 95.4 v 24.1 h -95.4 V 24.1 z M 403.8 467.8 c -0.4 11.3 -9.6 20.1 -20.9 20.1 H 129.1 c -11.3 0 -20.4 -8.8 -20.9 -20.1 L 93 72.3 h 326 L 403.8 467.8 z"
     id="path2"
     style="fill:#8000ffcc" />
  <path
     d="M 182.6 181.6 c -0.1 -6.6 -5.5 -11.8 -12 -11.8 c -0.1 0 -0.2 0 -0.2 0 c -6.7 0.1 -11.9 5.6 -11.8 12.3 l 3.8 196.6 c 0.1 6.6 5.5 11.8 12 11.8 c 0.1 0 0.2 0 0.2 0 c 6.7 -0.1 11.9 -5.6 11.8 -12.3 L 182.6 181.6 z"
     id="path4"
     style="fill:#8000ffcc"/>
  <path
     d="M 256 169.8 c -6.7 0 -12 5.4 -12 12 v 196.6 c 0 6.7 5.4 12 12 12 c 6.7 0 12 -5.4 12 -12 V 181.8 C 268 175.1 262.7 169.8 256 169.8 z"
     id="path6"
     style="fill:#8000ffcc" />
  <path
     d="M 341.6 169.8 c -6.6 -0.1 -12.2 5.2 -12.3 11.8 l -3.8 196.6 c -0.1 6.7 5.2 12.2 11.8 12.3 c 0.1 0 0.2 0 0.2 0 c 6.5 0 11.9 -5.2 12 -11.8 l 3.8 -196.6 C 353.6 175.4 348.3 169.9 341.6 169.8 z"
     id="path8"
     style="fill:#8000ffcc" />
</svg>
